<svg width="70" height="70" viewBox="0 0 70 70" fill="none" xmlns="http://www.w3.org/2000/svg">
<g clip-path="url(#clip0_2_30)">
<path d="M64.1468 52.8976L61.041 49.4334L57.8157 52.8976H51.4846H37.8669V36.7713H31.5358L39.4198 18.7338H47.0648L49.8123 24.9454V18.7338H59.3686L61.041 23.3925L62.7133 18.7338H70V15.9863C70 14.314 68.686 13 67.0136 13H2.98635C1.31399 13 0 14.314 0 15.9863V54.8089C0 56.4812 1.31399 57.7952 2.98635 57.7952H67.0136C68.686 57.7952 70 56.4812 70 54.8089V52.8976H64.1468Z" fill="#0071CE"/>
<path d="M64.9829 50.9863H70L63.43 43.9386L70 37.0102H65.1024L60.9215 41.5495L56.8601 37.0102H51.843L58.5324 44.058L51.843 50.9863H56.7406L60.9215 46.4471L64.9829 50.9863Z" fill="#0071CE"/>
<path d="M43.8396 47.7611V45.6109H51.7235V42.3857H43.8396V40.2355H51.843V37.0102H40.0171V50.9863H51.843V47.7611H43.8396Z" fill="#0071CE"/>
<path d="M66.2969 34.9795H69.8805V20.884L64.1467 21.0034L61.0409 29.7235L57.8157 21.0034H51.843V34.9795H55.6655V25.1843L59.2491 34.9795H62.5938L66.2969 25.1843V34.9795Z" fill="#0071CE"/>
<path d="M45.7508 21.0034H40.8532L34.6416 34.9795H38.8225L40.0171 32.2321H46.4676L47.6621 34.9795H51.9625L45.7508 21.0034ZM41.331 29.0068L43.2423 24.4676L45.1536 29.0068H41.331Z" fill="#0071CE"/>
<path d="M66.5358 43.5802L70 47.4027V39.7577L66.5358 43.5802Z" fill="#0071CE"/>
</g>
<defs>
<clipPath id="clip0_2_30">
<rect width="70" height="70" fill="white"/>
</clipPath>
</defs>
</svg>
