<svg width="458" height="100" viewBox="0 0 458 100" fill="none" xmlns="http://www.w3.org/2000/svg">
<path d="M20 34H43.6283V50.3378M20 65H43.6283V50.3378M43.6283 50.3378H74" stroke="white" stroke-width="10"/>
<path fill-rule="evenodd" clip-rule="evenodd" d="M67.493 35.2735L93 20.547L118.507 35.2735V64.7265L93 79.453L67.493 64.7265V61H57.493V70.5L93 91L128.507 70.5V29.5L93 9L57.493 29.5V40H67.493V35.2735Z" fill="#FB2576"/>
<path d="M78.9474 41.8868L93 33.7735L107.053 41.8868V58.1132L93 66.2265L78.9474 58.1132V41.8868Z" stroke="white" stroke-width="10"/>
<path d="M158.143 74.1818C154.568 74.1818 151.492 73.4242 148.916 71.9091C146.356 70.3788 144.386 68.2576 143.007 65.5455C141.643 62.8333 140.962 59.7121 140.962 56.1818C140.962 52.6061 141.651 49.4697 143.03 46.7727C144.424 44.0606 146.401 41.947 148.962 40.4318C151.522 38.9015 154.568 38.1364 158.098 38.1364C161.143 38.1364 163.81 38.6894 166.098 39.7955C168.386 40.9015 170.196 42.4545 171.53 44.4545C172.863 46.4545 173.598 48.803 173.734 51.5H164.598C164.34 49.7576 163.659 48.3561 162.552 47.2955C161.462 46.2197 160.03 45.6818 158.257 45.6818C156.757 45.6818 155.446 46.0909 154.325 46.9091C153.219 47.7121 152.356 48.8864 151.734 50.4318C151.113 51.9773 150.802 53.8485 150.802 56.0455C150.802 58.2727 151.106 60.1667 151.712 61.7273C152.333 63.2879 153.204 64.4773 154.325 65.2955C155.446 66.1136 156.757 66.5227 158.257 66.5227C159.363 66.5227 160.356 66.2955 161.234 65.8409C162.128 65.3864 162.863 64.7273 163.439 63.8636C164.03 62.9848 164.416 61.9318 164.598 60.7045H173.734C173.583 63.3712 172.856 65.7197 171.552 67.75C170.265 69.7652 168.484 71.3409 166.212 72.4773C163.939 73.6136 161.249 74.1818 158.143 74.1818ZM179.933 73.5V38.5909H189.32V44.6818H189.683C190.32 42.5152 191.388 40.8788 192.888 39.7727C194.388 38.6515 196.115 38.0909 198.07 38.0909C198.554 38.0909 199.077 38.1212 199.638 38.1818C200.198 38.2424 200.691 38.3258 201.115 38.4318V47.0227C200.66 46.8864 200.032 46.7652 199.229 46.6591C198.426 46.553 197.691 46.5 197.024 46.5C195.6 46.5 194.327 46.8106 193.206 47.4318C192.1 48.0379 191.221 48.8864 190.57 49.9773C189.933 51.0682 189.615 52.3258 189.615 53.75V73.5H179.933ZM213.16 86.5909C211.933 86.5909 210.782 86.4924 209.706 86.2955C208.645 86.1136 207.767 85.8788 207.07 85.5909L209.251 78.3636C210.388 78.7121 211.41 78.9015 212.32 78.9318C213.244 78.9621 214.039 78.75 214.706 78.2955C215.388 77.8409 215.941 77.0682 216.365 75.9773L216.933 74.5L204.41 38.5909H214.592L221.82 64.2273H222.183L229.479 38.5909H239.729L226.16 77.2727C225.509 79.1515 224.623 80.7879 223.501 82.1818C222.395 83.5909 220.994 84.6742 219.297 85.4318C217.6 86.2045 215.554 86.5909 213.16 86.5909ZM244.683 86.5909V38.5909H254.229V44.4545H254.66C255.085 43.5152 255.698 42.5606 256.501 41.5909C257.32 40.6061 258.38 39.7879 259.683 39.1364C261.001 38.4697 262.638 38.1364 264.592 38.1364C267.138 38.1364 269.486 38.803 271.638 40.1364C273.789 41.4545 275.509 43.447 276.797 46.1136C278.085 48.7652 278.729 52.0909 278.729 56.0909C278.729 59.9848 278.1 63.2727 276.842 65.9545C275.6 68.6212 273.903 70.6439 271.751 72.0227C269.615 73.3864 267.221 74.0682 264.57 74.0682C262.691 74.0682 261.092 73.7576 259.774 73.1364C258.471 72.5152 257.403 71.7348 256.57 70.7955C255.736 69.8409 255.1 68.8788 254.66 67.9091H254.365V86.5909H244.683ZM254.16 56.0455C254.16 58.1212 254.448 59.9318 255.024 61.4773C255.6 63.0227 256.433 64.2273 257.524 65.0909C258.615 65.9394 259.941 66.3636 261.501 66.3636C263.077 66.3636 264.41 65.9318 265.501 65.0682C266.592 64.1894 267.418 62.9773 267.979 61.4318C268.554 59.8712 268.842 58.0758 268.842 56.0455C268.842 54.0303 268.562 52.2576 268.001 50.7273C267.441 49.197 266.615 48 265.524 47.1364C264.433 46.2727 263.092 45.8409 261.501 45.8409C259.926 45.8409 258.592 46.2576 257.501 47.0909C256.426 47.9242 255.6 49.1061 255.024 50.6364C254.448 52.1667 254.16 53.9697 254.16 56.0455ZM303.751 38.5909V45.8636H282.729V38.5909H303.751ZM287.501 30.2273H297.183V62.7727C297.183 63.6667 297.32 64.3636 297.592 64.8636C297.865 65.3485 298.244 65.6894 298.729 65.8864C299.229 66.0833 299.804 66.1818 300.456 66.1818C300.91 66.1818 301.365 66.1439 301.82 66.0682C302.274 65.9773 302.623 65.9091 302.865 65.8636L304.388 73.0682C303.903 73.2197 303.221 73.3939 302.342 73.5909C301.463 73.803 300.395 73.9318 299.138 73.9773C296.804 74.0682 294.759 73.7576 293.001 73.0455C291.259 72.3333 289.903 71.2273 288.933 69.7273C287.963 68.2273 287.486 66.3333 287.501 64.0455V30.2273ZM325.456 74.1818C321.926 74.1818 318.873 73.4318 316.297 71.9318C313.736 70.4167 311.759 68.3106 310.365 65.6136C308.971 62.9015 308.274 59.7576 308.274 56.1818C308.274 52.5758 308.971 49.4242 310.365 46.7273C311.759 44.0152 313.736 41.9091 316.297 40.4091C318.873 38.8939 321.926 38.1364 325.456 38.1364C328.986 38.1364 332.032 38.8939 334.592 40.4091C337.168 41.9091 339.153 44.0152 340.547 46.7273C341.941 49.4242 342.638 52.5758 342.638 56.1818C342.638 59.7576 341.941 62.9015 340.547 65.6136C339.153 68.3106 337.168 70.4167 334.592 71.9318C332.032 73.4318 328.986 74.1818 325.456 74.1818ZM325.501 66.6818C327.107 66.6818 328.448 66.2273 329.524 65.3182C330.6 64.3939 331.41 63.1364 331.956 61.5455C332.517 59.9545 332.797 58.1439 332.797 56.1136C332.797 54.0833 332.517 52.2727 331.956 50.6818C331.41 49.0909 330.6 47.8333 329.524 46.9091C328.448 45.9848 327.107 45.5227 325.501 45.5227C323.88 45.5227 322.517 45.9848 321.41 46.9091C320.32 47.8333 319.494 49.0909 318.933 50.6818C318.388 52.2727 318.115 54.0833 318.115 56.1136C318.115 58.1439 318.388 59.9545 318.933 61.5455C319.494 63.1364 320.32 64.3939 321.41 65.3182C322.517 66.2273 323.88 66.6818 325.501 66.6818ZM364.706 74.1818C361.176 74.1818 358.123 73.4318 355.547 71.9318C352.986 70.4167 351.009 68.3106 349.615 65.6136C348.221 62.9015 347.524 59.7576 347.524 56.1818C347.524 52.5758 348.221 49.4242 349.615 46.7273C351.009 44.0152 352.986 41.9091 355.547 40.4091C358.123 38.8939 361.176 38.1364 364.706 38.1364C368.236 38.1364 371.282 38.8939 373.842 40.4091C376.418 41.9091 378.403 44.0152 379.797 46.7273C381.191 49.4242 381.888 52.5758 381.888 56.1818C381.888 59.7576 381.191 62.9015 379.797 65.6136C378.403 68.3106 376.418 70.4167 373.842 71.9318C371.282 73.4318 368.236 74.1818 364.706 74.1818ZM364.751 66.6818C366.357 66.6818 367.698 66.2273 368.774 65.3182C369.85 64.3939 370.66 63.1364 371.206 61.5455C371.767 59.9545 372.047 58.1439 372.047 56.1136C372.047 54.0833 371.767 52.2727 371.206 50.6818C370.66 49.0909 369.85 47.8333 368.774 46.9091C367.698 45.9848 366.357 45.5227 364.751 45.5227C363.13 45.5227 361.767 45.9848 360.66 46.9091C359.57 47.8333 358.744 49.0909 358.183 50.6818C357.638 52.2727 357.365 54.0833 357.365 56.1136C357.365 58.1439 357.638 59.9545 358.183 61.5455C358.744 63.1364 359.57 64.3939 360.66 65.3182C361.767 66.2273 363.13 66.6818 364.751 66.6818ZM397.865 26.9545V73.5H388.183V26.9545H397.865ZM434.666 48.5455L425.802 49.0909C425.651 48.3333 425.325 47.6515 424.825 47.0455C424.325 46.4242 423.666 45.9318 422.848 45.5682C422.045 45.1894 421.083 45 419.962 45C418.462 45 417.196 45.3182 416.166 45.9545C415.136 46.5758 414.621 47.4091 414.621 48.4545C414.621 49.2879 414.954 49.9924 415.621 50.5682C416.287 51.1439 417.431 51.6061 419.052 51.9545L425.371 53.2273C428.765 53.9242 431.295 55.0455 432.962 56.5909C434.628 58.1364 435.462 60.1667 435.462 62.6818C435.462 64.9697 434.787 66.9773 433.439 68.7045C432.106 70.4318 430.272 71.7803 427.939 72.75C425.621 73.7045 422.946 74.1818 419.916 74.1818C415.295 74.1818 411.613 73.2197 408.871 71.2955C406.143 69.3561 404.545 66.7197 404.075 63.3864L413.598 62.8864C413.886 64.2955 414.583 65.3712 415.689 66.1136C416.795 66.8409 418.212 67.2045 419.939 67.2045C421.636 67.2045 422.999 66.8788 424.03 66.2273C425.075 65.5606 425.606 64.7045 425.621 63.6591C425.606 62.7803 425.234 62.0606 424.507 61.5C423.78 60.9242 422.659 60.4848 421.143 60.1818L415.098 58.9773C411.689 58.2955 409.151 57.1136 407.484 55.4318C405.833 53.75 405.007 51.6061 405.007 49C405.007 46.7576 405.613 44.8258 406.825 43.2045C408.052 41.5833 409.772 40.3333 411.984 39.4545C414.212 38.5758 416.818 38.1364 419.802 38.1364C424.212 38.1364 427.681 39.0682 430.212 40.9318C432.757 42.7955 434.242 45.3333 434.666 48.5455Z" fill="white"/>
</svg>
