<?xml version="1.0" standalone="no"?>
<!DOCTYPE svg PUBLIC "-//W3C//DTD SVG 20010904//EN"
 "http://www.w3.org/TR/2001/REC-SVG-20010904/DTD/svg10.dtd">
<svg version="1.0" xmlns="http://www.w3.org/2000/svg"
 width="700.000000pt" height="700.000000pt" viewBox="0 0 700.000000 700.000000"
 preserveAspectRatio="xMidYMid meet">
<metadata>
Created by potrace 1.14, written by Peter Selinger 2001-2017
</metadata>
<g transform="translate(0.000000,700.000000) scale(0.100000,-0.100000)"
fill="#000000" stroke="none">
<path d="M3420 6775 c-52 -31 -102 -59 -110 -64 -16 -10 -270 -156 -349 -202
-25 -15 -149 -86 -276 -159 -126 -74 -313 -182 -415 -240 -345 -199 -450 -260
-582 -337 -73 -42 -158 -90 -188 -108 -175 -101 -406 -234 -478 -276 -45 -27
-85 -49 -88 -49 -2 0 -23 -12 -47 -27 -23 -15 -60 -37 -82 -49 -22 -12 -74
-42 -115 -66 l-75 -45 0 -1680 0 -1681 135 -79 c74 -43 144 -83 155 -89 11 -6
193 -111 405 -234 212 -123 401 -232 420 -243 19 -10 150 -86 290 -167 325
-188 636 -368 675 -390 17 -9 102 -59 190 -110 201 -116 217 -125 263 -151 38
-22 104 -60 272 -157 52 -30 98 -57 101 -58 6 -3 47 17 109 54 19 12 49 29 65
38 17 9 248 143 515 297 267 154 613 354 770 444 157 91 330 191 385 223 249
145 544 315 590 341 28 15 147 84 265 152 l215 125 3 1684 2 1683 -207 119
c-115 66 -287 165 -383 221 -96 56 -195 113 -220 127 -25 14 -96 55 -158 92
-62 36 -132 77 -155 90 -23 12 -114 65 -202 116 -88 51 -176 102 -195 112 -19
11 -168 97 -330 191 -162 93 -309 178 -327 188 -67 38 -105 60 -411 238 -172
99 -318 181 -325 181 -7 0 -55 -25 -107 -55z m367 -1035 c115 -66 215 -124
223 -129 8 -6 78 -46 155 -90 77 -45 151 -88 165 -96 131 -79 894 -515 901
-515 5 0 9 -4 9 -9 0 -5 6 -11 13 -13 10 -2 161 -88 335 -189 l27 -16 3 -1209
2 -1210 -227 -131 c-126 -72 -298 -171 -383 -221 -624 -361 -811 -468 -850
-490 -42 -23 -137 -78 -270 -157 -30 -18 -75 -44 -100 -57 -49 -27 -78 -44
-186 -107 -39 -22 -73 -41 -76 -41 -5 0 -444 253 -1253 720 -165 96 -311 180
-325 187 -14 7 -135 78 -270 156 l-245 142 0 1203 c0 662 2 1207 5 1211 3 4
145 87 315 185 171 98 322 187 337 197 15 11 29 19 32 19 3 0 29 14 58 31 29
18 186 108 348 202 381 219 330 190 543 313 34 20 82 48 107 62 25 14 78 45
118 69 41 24 75 43 77 43 1 0 36 20 76 44 70 42 74 44 101 30 15 -8 121 -68
235 -134z"/>
<path d="M3475 5247 c-27 -16 -71 -42 -96 -56 -83 -48 -404 -232 -419 -242 -8
-5 -141 -81 -295 -170 -154 -89 -314 -181 -356 -206 -42 -24 -136 -79 -210
-121 l-134 -77 0 -902 c0 -872 1 -902 19 -913 10 -7 75 -44 145 -84 69 -40
304 -176 521 -301 217 -126 406 -235 420 -242 14 -8 46 -26 71 -41 25 -15 123
-71 216 -125 l171 -99 44 25 c23 13 201 116 393 227 193 111 364 210 380 220
77 44 352 203 365 211 8 5 94 54 190 110 177 101 203 119 183 119 -6 0 -84 43
-174 95 -89 52 -163 95 -165 95 -3 0 -119 68 -154 90 -8 5 -31 18 -50 28 -19
10 -81 46 -137 79 -56 34 -111 64 -121 67 -14 5 -127 -56 -382 -204 -200 -115
-367 -210 -372 -210 -8 0 -507 284 -578 329 -14 8 -40 24 -59 34 -19 10 -50
29 -70 41 l-36 23 1 424 c1 233 2 427 3 430 0 4 18 16 39 26 20 11 186 106
368 211 l332 192 193 -111 c107 -61 264 -152 349 -202 222 -130 194 -120 254
-86 28 16 58 33 66 38 8 5 146 85 305 177 160 92 313 182 342 199 l52 31 -137
79 c-75 43 -227 131 -337 195 -110 64 -225 130 -255 147 -30 16 -93 53 -140
80 -47 28 -103 61 -125 73 -22 12 -157 90 -300 173 -143 82 -262 151 -265 152
-3 1 -27 -11 -55 -28z"/>
</g>
</svg>
