<?xml version="1.0" standalone="no"?>
<!DOCTYPE svg PUBLIC "-//W3C//DTD SVG 20010904//EN"
 "http://www.w3.org/TR/2001/REC-SVG-20010904/DTD/svg10.dtd">
<svg version="1.0" xmlns="http://www.w3.org/2000/svg"
 width="384.000000pt" height="384.000000pt" viewBox="0 0 384.000000 384.000000"
 preserveAspectRatio="xMidYMid meet">
<metadata>
Created by potrace 1.14, written by Peter Selinger 2001-2017
</metadata>
<g transform="translate(0.000000,384.000000) scale(0.100000,-0.100000)"
fill="#000000" stroke="none">
<path d="M2411 3105 c-40 -25 -75 -45 -77 -45 -2 0 -32 -17 -66 -38 -35 -21
-88 -52 -118 -69 -30 -17 -154 -88 -275 -158 -121 -70 -236 -136 -255 -147
-19 -11 -71 -41 -115 -66 l-80 -47 0 -155 0 -155 150 0 150 0 0 67 c0 37 3 69
5 71 3 2 75 45 160 94 85 49 241 139 345 200 263 153 250 147 283 130 15 -8
137 -78 272 -157 135 -78 265 -154 290 -167 25 -14 61 -35 80 -47 19 -11 48
-28 65 -37 l30 -16 0 -438 c0 -477 3 -450 -58 -482 -18 -9 -129 -72 -247 -141
-118 -69 -228 -133 -245 -142 -16 -9 -70 -40 -120 -69 -49 -28 -92 -51 -95
-51 -4 0 -103 56 -221 124 -118 68 -288 166 -379 219 l-165 95 1 56 1 56 -152
0 -151 0 1 -142 0 -143 169 -97 c93 -54 173 -98 177 -98 5 0 9 -4 9 -10 0 -5
4 -10 10 -10 5 0 69 -35 142 -78 74 -43 140 -81 148 -85 8 -4 31 -17 50 -28
19 -12 108 -63 197 -115 l162 -95 40 26 c23 14 43 25 45 25 3 0 55 29 116 65
61 36 130 76 153 89 23 13 98 56 167 96 69 40 145 84 170 98 25 13 83 47 130
75 47 27 105 61 130 75 25 14 61 35 80 47 l35 22 0 611 c0 393 -4 614 -10 621
-6 5 -26 18 -45 29 -43 23 -724 417 -798 461 -29 17 -55 31 -57 31 -2 0 -38
20 -78 45 -41 25 -76 45 -78 45 -2 0 -37 -21 -78 -45z"/>
<path d="M2465 2566 c-29 -20 -496 -288 -522 -300 -25 -12 -25 -9 -24 -123 l1
-83 -380 0 c-355 0 -380 1 -380 18 -1 9 0 119 0 245 l1 227 -431 0 -430 0 0
-150 0 -150 280 0 279 0 1 -315 0 -315 -280 0 -280 0 0 -150 0 -150 430 0 431
0 -1 148 c-1 81 -1 180 -1 220 l1 72 379 0 379 0 0 -62 c1 -35 1 -73 1 -84 1
-16 21 -34 74 -66 107 -66 218 -128 228 -128 5 0 9 -4 9 -9 0 -5 8 -11 18 -14
17 -6 45 -22 161 -90 36 -21 72 -39 80 -39 9 -1 84 39 166 87 83 48 168 97
190 110 22 12 77 44 123 70 45 26 84 51 87 55 5 7 7 244 5 587 l0 72 -117 69
c-181 106 -452 262 -455 261 -2 0 -12 -6 -23 -13z m129 -393 c56 -32 114 -65
131 -74 l30 -16 3 -161 2 -161 -133 -75 c-73 -42 -136 -76 -140 -76 -4 0 -36
18 -72 40 -36 22 -67 40 -69 40 -3 0 -32 16 -65 36 l-61 36 0 158 0 158 78 45
c42 24 95 55 117 67 22 12 44 26 50 31 15 15 25 11 129 -48z"/>
</g>
</svg>
